<mxfile host="app.diagrams.net" modified="2024-03-30T23:34:47.256Z" agent="Mozilla/5.0 (Windows NT 10.0; Win64; x64) AppleWebKit/537.36 (KHTML, like Gecko) Chrome/123.0.0.0 Safari/537.36" etag="JwHna3ijKKtzGSPlf2CD" version="24.2.1" type="device">
  <diagram name="Page-1" id="mtAr_mu7G6u2_z8CVEQU">
    <mxGraphModel dx="845" dy="506" grid="1" gridSize="10" guides="1" tooltips="1" connect="1" arrows="1" fold="1" page="1" pageScale="1" pageWidth="827" pageHeight="1169" math="0" shadow="0">
      <root>
        <mxCell id="0" />
        <mxCell id="1" parent="0" />
        <mxCell id="e3sRT_NtdZ0zjib1vqxx-1" value="" style="ellipse;whiteSpace=wrap;html=1;aspect=fixed;" parent="1" vertex="1">
          <mxGeometry x="260" y="520" width="20" height="20" as="geometry" />
        </mxCell>
        <mxCell id="e3sRT_NtdZ0zjib1vqxx-2" value="" style="ellipse;whiteSpace=wrap;html=1;aspect=fixed;labelBackgroundColor=#000000;fillColor=#000000;" parent="1" vertex="1">
          <mxGeometry x="265" y="525" width="10" height="10" as="geometry" />
        </mxCell>
        <mxCell id="e3sRT_NtdZ0zjib1vqxx-3" style="edgeStyle=orthogonalEdgeStyle;rounded=0;orthogonalLoop=1;jettySize=auto;html=1;exitX=0.898;exitY=-0.006;exitDx=0;exitDy=0;entryX=0.5;entryY=1;entryDx=0;entryDy=0;exitPerimeter=0;" parent="1" target="e3sRT_NtdZ0zjib1vqxx-1" edge="1">
          <mxGeometry relative="1" as="geometry">
            <mxPoint x="269.80000000000007" y="599.9999999999999" as="sourcePoint" />
          </mxGeometry>
        </mxCell>
        <mxCell id="IsBbG6u886mkhI8KnNi0-12" style="edgeStyle=orthogonalEdgeStyle;rounded=0;orthogonalLoop=1;jettySize=auto;html=1;entryX=0;entryY=0.5;entryDx=0;entryDy=0;" parent="1" edge="1">
          <mxGeometry relative="1" as="geometry">
            <mxPoint x="290" y="610" as="sourcePoint" />
            <mxPoint x="420" y="610" as="targetPoint" />
          </mxGeometry>
        </mxCell>
        <mxCell id="IsBbG6u886mkhI8KnNi0-16" style="edgeStyle=orthogonalEdgeStyle;rounded=0;orthogonalLoop=1;jettySize=auto;html=1;entryX=0;entryY=0.25;entryDx=0;entryDy=0;exitX=0.25;exitY=1;exitDx=0;exitDy=0;" parent="1" source="e3sRT_NtdZ0zjib1vqxx-5" target="e3sRT_NtdZ0zjib1vqxx-45" edge="1">
          <mxGeometry relative="1" as="geometry">
            <Array as="points">
              <mxPoint x="215" y="699" />
            </Array>
          </mxGeometry>
        </mxCell>
        <mxCell id="e3sRT_NtdZ0zjib1vqxx-5" value="Charging" style="rounded=1;whiteSpace=wrap;html=1;" parent="1" vertex="1">
          <mxGeometry x="190" y="600" width="100" height="40" as="geometry" />
        </mxCell>
        <mxCell id="e3sRT_NtdZ0zjib1vqxx-6" value="" style="html=1;verticalAlign=bottom;startArrow=oval;startFill=1;endArrow=classic;startSize=14;curved=0;rounded=0;endFill=1;" parent="1" edge="1">
          <mxGeometry width="60" relative="1" as="geometry">
            <mxPoint x="210" y="530" as="sourcePoint" />
            <mxPoint x="210" y="600.24" as="targetPoint" />
          </mxGeometry>
        </mxCell>
        <mxCell id="e3sRT_NtdZ0zjib1vqxx-7" value="[isOnline = true]" style="text;align=center;verticalAlign=middle;resizable=0;points=[];autosize=1;strokeColor=none;fillColor=none;fontSize=11;" parent="1" vertex="1">
          <mxGeometry x="115" y="550" width="100" height="30" as="geometry" />
        </mxCell>
        <mxCell id="e3sRT_NtdZ0zjib1vqxx-8" value="[isOnline = false]" style="text;align=center;verticalAlign=middle;resizable=0;points=[];autosize=1;strokeColor=none;fillColor=none;fontSize=11;" parent="1" vertex="1">
          <mxGeometry x="265" y="550" width="110" height="30" as="geometry" />
        </mxCell>
        <mxCell id="e3sRT_NtdZ0zjib1vqxx-15" value="&lt;div style=&quot;font-size: 11px;&quot;&gt;Back up&amp;nbsp;&lt;span style=&quot;background-color: initial;&quot;&gt;power&amp;nbsp;&lt;/span&gt;&lt;/div&gt;&lt;div style=&quot;font-size: 11px;&quot;&gt;is used&lt;/div&gt;&lt;div style=&quot;font-size: 11px;&quot;&gt;&lt;span style=&quot;background-color: initial;&quot;&gt;for the 1st time&lt;/span&gt;&lt;/div&gt;&lt;div style=&quot;font-size: 11px;&quot;&gt;&lt;span style=&quot;background-color: initial;&quot;&gt;since 20h ago&lt;/span&gt;&lt;/div&gt;" style="text;html=1;align=left;verticalAlign=middle;resizable=0;points=[];autosize=1;strokeColor=none;fillColor=none;fontSize=11;" parent="1" vertex="1">
          <mxGeometry x="500" y="725" width="100" height="70" as="geometry" />
        </mxCell>
        <mxCell id="e3sRT_NtdZ0zjib1vqxx-21" value="Uninterruptible power supply (UPS)" style="text;html=1;align=center;verticalAlign=middle;resizable=0;points=[];autosize=1;strokeColor=none;fillColor=none;fontStyle=1;fontSize=16;" parent="1" vertex="1">
          <mxGeometry x="105" y="460" width="270" height="30" as="geometry" />
        </mxCell>
        <mxCell id="e3sRT_NtdZ0zjib1vqxx-31" value="Main power&amp;nbsp;&lt;div&gt;supply cut off&lt;/div&gt;" style="text;html=1;align=left;verticalAlign=top;resizable=0;points=[];autosize=1;strokeColor=none;fillColor=none;fontSize=11;" parent="1" vertex="1">
          <mxGeometry x="470" y="640" width="90" height="40" as="geometry" />
        </mxCell>
        <mxCell id="IsBbG6u886mkhI8KnNi0-5" style="edgeStyle=orthogonalEdgeStyle;rounded=0;orthogonalLoop=1;jettySize=auto;html=1;exitX=0.5;exitY=0;exitDx=0;exitDy=0;entryX=0.5;entryY=1;entryDx=0;entryDy=0;" parent="1" source="e3sRT_NtdZ0zjib1vqxx-36" target="e3sRT_NtdZ0zjib1vqxx-45" edge="1">
          <mxGeometry relative="1" as="geometry" />
        </mxCell>
        <mxCell id="e3sRT_NtdZ0zjib1vqxx-36" value="Inserting new Alert in DB" style="rounded=1;whiteSpace=wrap;html=1;" parent="1" vertex="1">
          <mxGeometry x="420" y="800" width="100" height="35" as="geometry" />
        </mxCell>
        <mxCell id="IsBbG6u886mkhI8KnNi0-3" value="" style="edgeStyle=orthogonalEdgeStyle;rounded=0;orthogonalLoop=1;jettySize=auto;html=1;exitX=0.75;exitY=1;exitDx=0;exitDy=0;entryX=0.75;entryY=0;entryDx=0;entryDy=0;" parent="1" source="e3sRT_NtdZ0zjib1vqxx-45" target="e3sRT_NtdZ0zjib1vqxx-36" edge="1">
          <mxGeometry relative="1" as="geometry" />
        </mxCell>
        <mxCell id="e3sRT_NtdZ0zjib1vqxx-45" value="Draining" style="rounded=1;whiteSpace=wrap;html=1;" parent="1" vertex="1">
          <mxGeometry x="420" y="690" width="100" height="35" as="geometry" />
        </mxCell>
        <mxCell id="e3sRT_NtdZ0zjib1vqxx-51" style="rounded=0;orthogonalLoop=1;jettySize=auto;html=1;entryX=0;entryY=0.5;entryDx=0;entryDy=0;exitX=0;exitY=0.75;exitDx=0;exitDy=0;" parent="1" source="e3sRT_NtdZ0zjib1vqxx-45" target="e3sRT_NtdZ0zjib1vqxx-5" edge="1">
          <mxGeometry relative="1" as="geometry">
            <mxPoint x="420" y="900" as="sourcePoint" />
            <mxPoint x="145" y="880" as="targetPoint" />
            <Array as="points">
              <mxPoint x="120" y="720" />
              <mxPoint x="120" y="620" />
            </Array>
          </mxGeometry>
        </mxCell>
        <mxCell id="e3sRT_NtdZ0zjib1vqxx-52" value="Main power supply restored" style="text;html=1;align=center;verticalAlign=middle;resizable=0;points=[];autosize=1;strokeColor=none;fillColor=none;fontSize=11;rotation=0;" parent="1" vertex="1">
          <mxGeometry x="260" y="710" width="160" height="30" as="geometry" />
        </mxCell>
        <mxCell id="IsBbG6u886mkhI8KnNi0-7" style="edgeStyle=orthogonalEdgeStyle;rounded=0;orthogonalLoop=1;jettySize=auto;html=1;entryX=1;entryY=0.5;entryDx=0;entryDy=0;exitX=1;exitY=0.5;exitDx=0;exitDy=0;" parent="1" source="e3sRT_NtdZ0zjib1vqxx-45" target="e3sRT_NtdZ0zjib1vqxx-1" edge="1">
          <mxGeometry relative="1" as="geometry">
            <Array as="points">
              <mxPoint x="580" y="708" />
              <mxPoint x="580" y="530" />
            </Array>
          </mxGeometry>
        </mxCell>
        <mxCell id="IsBbG6u886mkhI8KnNi0-6" value="Alert inserted" style="text;html=1;align=right;verticalAlign=middle;resizable=0;points=[];autosize=1;strokeColor=none;fillColor=none;fontSize=11;" parent="1" vertex="1">
          <mxGeometry x="380" y="765" width="90" height="30" as="geometry" />
        </mxCell>
        <mxCell id="IsBbG6u886mkhI8KnNi0-8" value="Battery depleted" style="text;html=1;align=left;verticalAlign=top;resizable=0;points=[];autosize=1;strokeColor=none;fillColor=none;rotation=-90;fontSize=11;" parent="1" vertex="1">
          <mxGeometry x="540" y="645" width="100" height="30" as="geometry" />
        </mxCell>
        <mxCell id="IsBbG6u886mkhI8KnNi0-14" style="edgeStyle=orthogonalEdgeStyle;rounded=0;orthogonalLoop=1;jettySize=auto;html=1;entryX=0.5;entryY=0;entryDx=0;entryDy=0;" parent="1" source="IsBbG6u886mkhI8KnNi0-10" target="e3sRT_NtdZ0zjib1vqxx-45" edge="1">
          <mxGeometry relative="1" as="geometry" />
        </mxCell>
        <mxCell id="AfgXA-i-UCLUj6b9Ys00-1" style="edgeStyle=orthogonalEdgeStyle;rounded=0;orthogonalLoop=1;jettySize=auto;html=1;exitX=0;exitY=0.75;exitDx=0;exitDy=0;entryX=1;entryY=0.75;entryDx=0;entryDy=0;" parent="1" source="IsBbG6u886mkhI8KnNi0-10" target="e3sRT_NtdZ0zjib1vqxx-5" edge="1">
          <mxGeometry relative="1" as="geometry" />
        </mxCell>
        <mxCell id="IsBbG6u886mkhI8KnNi0-10" value="Idling" style="rounded=1;whiteSpace=wrap;html=1;" parent="1" vertex="1">
          <mxGeometry x="420" y="600" width="100" height="40" as="geometry" />
        </mxCell>
        <mxCell id="IsBbG6u886mkhI8KnNi0-11" value="Battery fully charged" style="text;html=1;align=center;verticalAlign=top;resizable=0;points=[];autosize=1;strokeColor=none;fillColor=none;fontSize=11;" parent="1" vertex="1">
          <mxGeometry x="293.5" y="590" width="120" height="30" as="geometry" />
        </mxCell>
        <mxCell id="IsBbG6u886mkhI8KnNi0-17" value="Main power&amp;nbsp;&lt;div&gt;supply cut off&lt;/div&gt;" style="text;html=1;align=left;verticalAlign=top;resizable=0;points=[];autosize=1;strokeColor=none;fillColor=none;fontSize=11;" parent="1" vertex="1">
          <mxGeometry x="215" y="660" width="90" height="40" as="geometry" />
        </mxCell>
        <mxCell id="AfgXA-i-UCLUj6b9Ys00-2" value="Battery charge fell&lt;div&gt;under the minimum&lt;/div&gt;" style="text;html=1;align=center;verticalAlign=bottom;resizable=0;points=[];autosize=1;strokeColor=none;fillColor=none;fontSize=11;" parent="1" vertex="1">
          <mxGeometry x="294" y="620" width="120" height="40" as="geometry" />
        </mxCell>
      </root>
    </mxGraphModel>
  </diagram>
</mxfile>
